<svg version="1.2" xmlns="http://www.w3.org/2000/svg" viewBox="0 0 138 46" width="138" height="46">
	<title>atos-logo-white-2021-svg</title>
	<style>
		.s0 { fill: #000000 } 
	</style>
	<g id="Layer">
		<path id="Layer" class="s0" d="m137.3 31.8c0 9-8.1 13.5-17.6 13.5-6.2 0-11.8-1.4-16.4-4 1.2-1.8 3-4.8 3.8-6.7 3.2 1.3 8.3 2.9 12.9 2.9 4.5 0 8.1-1.9 8.1-4.4 0-2.2-0.8-3.9-8-6.2-9.2-2.9-14.5-5.8-14.5-13.6 0-8.2 7.6-12.7 17.1-12.7 4.1 0 9.1 0.9 12.3 1.7l-0.5 11.9-6.8-0.1 0.1-5.9c-1.1-0.3-2.5-0.4-4.5-0.4-5.2 0-8.7 1.7-8.7 4.8 0 2.1 2 4.1 9.2 6.4 9.3 3 13.5 5.8 13.5 12.8z"/>
		<path id="Layer" fill-rule="evenodd" class="s0" d="m43.3 39.1h3.5v5.4h-16.6v-5.4h3.4l-2.1-6h-16.8l-2.2 6h3.7v5.4h-15.5v-5.4h3.7l11.5-32.7h-4.6v-5.5h18.5zm-14.2-12.8l-6.1-17-6 17z"/>
		<path id="Layer" fill-rule="evenodd" class="s0" d="m104.7 26.1c0 10.6-8.7 19.2-19.2 19.2-5.2 0-9.8-2.1-13.3-5.4-2.3 2.9-6.6 5.3-11.8 5.3-6.2 0-12.7-3-12.7-12.2v-18h-6.5v-6.8h6.5v-7.4h8.9v7.4h9.9v6.8h-9.9v17.1c0 3.7 2.3 6.2 5.5 6.2 2.3 0 4.8-1.1 6.6-3-1.5-2.8-2.4-5.9-2.4-9.2 0-8.5 5.5-15.8 13.3-18.3-1.6 2.4-2.7 7.8-2.7 10.8-1.5 2.1-2.5 4.6-2.5 7.5 0 6.5 5 11.8 11.1 11.8 2.2 0 4.3-0.7 6-1.9-6.9-2.9-11.7-9.8-11.7-17.7 0-4.3 1.4-8.2 3.7-11.4q1-0.1 2-0.1c2.7 0 5.2 0.6 7.5 1.5 6.9 3 11.7 9.8 11.7 17.8zm-8.1 0c0-5.5-3.5-10.1-8.1-11.4q-0.6 1.7-0.6 3.6c0 5.4 3.5 10 8.1 11.4q0.6-1.7 0.6-3.6z"/>
	</g>
</svg>