<svg xmlns="http://www.w3.org/2000/svg" width="658.881" height="189.644" viewBox="0 0 658.881 189.644"><g id="Group_698" data-name="Group 698" transform="translate(7904 455.024)"><path id="Path_747" data-name="Path 747" d="M354.393,501.888a11.8,11.8,0,0,0,5.9,10.253l72.073,41.612a11.8,11.8,0,0,0,11.83-.017l71.6-41.612a11.8,11.8,0,0,0,5.871-10.17l.235-82.818a11.8,11.8,0,0,0-5.9-10.254l-72.073-41.612a11.8,11.8,0,0,0-11.83.017L360.5,408.9a11.8,11.8,0,0,0-5.871,10.17Z" transform="translate(-8258.393 -820.715)" fill="#32cdb6"></path><path id="Path_748" data-name="Path 748" d="M514.583,477.382h0l-39.618-22.874a2.492,2.492,0,0,0-2.5,0l-38.119,22.152a2.493,2.493,0,0,0-1.24,2.148l-.125,44.088a2.491,2.491,0,0,0,1.246,2.165l5.214,3.01h0l34.4,19.863,38.94-22.394a3.582,3.582,0,0,0,1.8-3.106Zm-1.058,45.057a2.532,2.532,0,0,1-1.266,2.188l-38.408,22.089.125-44.309a2.494,2.494,0,0,1,1.24-2.148l38.308-22.252Z" transform="translate(-8294.231 -861.065)" fill="#0f3a35"></path><path id="Path_749" data-name="Path 749" d="M531.672,548.214c1.464-6.052,2.556-11.886,4.023-17.938.277-1.145.223-1.151,1.079-1.645l.123-.071c1.521-.877,8.157-4.722,8.359-4.839.948-.547-.117,1.516-2.967,9.772-1.671,4.843-1.964,5.284-.6,4.5.223-.128.49-.29.8-.471,1.216-.7,2.068-1.2,2.667-1.545,1.2-.691,1.385-.778,1.459-.691.153.183-.362,1.245-.869,2.386-.066.152-5.493,12.6-9.2,20.656-2.623,5.693-3.068,6.577-3.324,6.711-.19.012.119-1.292.615-3.11,4.37-16.032,4.481-15.967,4.305-16.192-.092-.119-.208-.084-1.567.7-.838.484-2.15,1.254-4.221,2.45-1.034.6-.927.332-.686-.668" transform="translate(-8339.161 -892.742)" fill="#0f3a35"></path><path id="Path_750" data-name="Path 750" d="M795.383,504.056c4.767-3.71,7.427-9.4,7.427-16.4,0-13.559-10.244-21.983-26.736-21.983H742.152v81.257h34.133c18.925,0,30.223-8.81,30.223-23.568,0-8.667-4.085-15.5-11.126-19.3m-19.414-4.9H754V477.415h21.964c6.838,0,14.99,1.867,14.99,10.766,0,5.008-2.6,10.977-14.99,10.977M754,510.9h21.964c6.979,0,18.688,1.55,18.688,11.928a10.267,10.267,0,0,1-2.926,7.691c-3.055,3.033-8.494,4.6-15.762,4.553H754Z" transform="translate(-8435.217 -866.307)" fill="#0f3a35"></path><path id="Path_751" data-name="Path 751" d="M933.642,511.325h38.453v-11.85H933.642v-22.06h43.207V465.67H921.79v81.257h56.432V535.181h-44.58Z" transform="translate(-8517.135 -866.307)" fill="#0f3a35"></path><path id="Path_752" data-name="Path 752" d="M1115.975,465.669h-29.694v81.258h11.85V522.312h17.844c20.116,0,32.126-10.706,32.126-28.639,0-17.535-12.01-28-32.126-28m-17.844,11.745h17.739c9.393,0,20.591,2.839,20.591,16.365,0,13.875-11.2,16.787-20.591,16.787h-17.739Z" transform="translate(-8592.146 -866.307)" fill="#0f3a35"></path><path id="Path_753" data-name="Path 753" d="M1302.413,527.168a31.062,31.062,0,0,1-20.763,8.03c-16.6,0-30.1-13.076-30.1-29.148,0-15.955,13.5-28.936,30.1-28.936a30.693,30.693,0,0,1,20.715,8.092l2.959,2.755,7.266-9.3-2.59-2.311a42.7,42.7,0,0,0-28.455-10.87c-23.073,0-41.844,18.25-41.844,40.681,0,22.491,18.772,40.787,41.844,40.787a42.665,42.665,0,0,0,28.607-11.229l2.685-2.477-7.661-8.549Z" transform="translate(-8662.106 -866.218)" fill="#0f3a35"></path><path id="Path_754" data-name="Path 754" d="M1453.325,465.475c-23.131,0-41.949,18.25-41.949,40.681,0,22.49,18.819,40.787,41.949,40.787s41.95-18.3,41.95-40.787c0-22.432-18.819-40.681-41.95-40.681m0,11.745c16.538,0,29.993,12.981,29.993,28.937,0,16.013-13.454,29.042-29.993,29.042s-29.993-13.028-29.993-29.042c0-15.956,13.455-28.937,29.993-28.937" transform="translate(-8740.394 -866.218)" fill="#0f3a35"></path></g></svg>