<svg xmlns="http://www.w3.org/2000/svg" viewBox="0 0 288.349 50">
  <g fill="#000">
    <path d="M11.246 15.696v12.945L3.8 15.696H0v18.366h3.4V21.196l7.686 12.864h3.479V15.696zM21.925 31.311a9.873 9.873 0 007.686 3.641 10.006 10.006 0 007.686-3.641zm17.314-3.883a8.535 8.535 0 00.324-2.508 9.951 9.951 0 10-19.9 0 8.536 8.536 0 00.324 2.508h3.883a6.324 6.324 0 1112.136-2.508 6.593 6.593 0 01-.485 2.508zM48.949 34.062h3.722l6.31-18.366h-3.722l-4.369 14.4-4.452-14.4h-3.8zM67.152 18.77h8.01v-3.074H63.673v18.366h11.812v-2.994h-8.333v-5.016h7.362v-2.994h-7.362zM80.825 34.062h3.4V21.196l7.686 12.864h3.479V15.696h-3.317v12.945l-7.448-12.945h-3.8zM100.162 18.77h4.773v15.292h3.56V18.77h4.854v-3.074h-13.187zM118.042 15.696h3.56v18.366h-3.56z"/>
    <path stroke="#fff" stroke-width=".5" opacity=".8" d="M141.91 49.919L141.829 0"/>
    <path d="M283.819 17.476h4.531v-1.942h-11v1.942h4.45v16.586h2.023zm-8.172 0v-1.942h-8.414v18.447h2.022v-9.062h6.149v-1.941h-6.149v-5.5zm-34.223.647a5.354 5.354 0 00-4.769-2.832c-2.751 0-5.178 1.861-5.178 4.693 0 2.67 1.861 3.722 4.045 4.693l1.133.485c1.7.809 3.4 1.537 3.4 3.641a3.713 3.713 0 01-3.8 3.641 3.832 3.832 0 01-3.722-3.4l-2.023.566a5.834 5.834 0 0011.57-.971c0-2.913-2.023-4.126-4.45-5.178l-1.214-.566c-1.214-.566-2.913-1.294-2.913-2.913a2.922 2.922 0 013.074-2.832 3.354 3.354 0 013.155 2.023zm-30.34 15.939h2.023v-14.24l14.4 15.049V15.615h-2.022v14.32l-14.401-15.129zm-12.54-16.828a7.687 7.687 0 11-7.605 7.686 7.564 7.564 0 017.605-7.686m0-1.942a9.547 9.547 0 109.628 9.547 9.634 9.634 0 00-9.628-9.547m-19.5 10.68h.485l5.583 8.091h2.508l-5.905-8.257a4.824 4.824 0 004.612-5.1c0-4.126-3.236-5.1-6.8-5.1h-2.67v18.456h2.023v-8.091zm0-8.5h.647c2.508 0 4.693.324 4.693 3.317 0 2.832-2.346 3.317-4.693 3.317h-.647zm-14.968 6.068v-7.925h-2.021v18.447h2.023v-7.929l.485-.485 7.605 8.5H175l-8.981-9.871 8.657-8.576h-2.751zM286.327 43.527h.809v-.728h-.809v-1.618h-.809v1.618h-.485v.728h.485v3.883h.809zm-6.149-.728h-.809v4.612h.809v-2.185c0-.809.081-1.861 1.133-1.861.89 0 .971.647.971 1.375v2.59h.809v-2.751c0-1.052-.324-2.023-1.537-2.023a1.572 1.572 0 00-1.294.647v-.4zm-6.472 1.861a1.465 1.465 0 011.375-1.214 1.541 1.541 0 011.375 1.214zm3.56.647a2.241 2.241 0 00-2.185-2.587 2.277 2.277 0 00-2.265 2.508 2.3 2.3 0 004.369 1.052l-.647-.4a1.576 1.576 0 01-1.375.971 1.488 1.488 0 01-1.537-1.537zm-11.731-2.508h-.809v4.612h.809v-2.347c0-.728.081-1.618 1.052-1.618.728 0 .809.809.809 1.375v2.589h.809v-2.427c0-.728.081-1.537.971-1.537.809 0 .809.728.809 1.294v2.67h.809v-2.831c0-.971-.324-1.942-1.456-1.942a1.5 1.5 0 00-1.375.728 1.372 1.372 0 00-1.294-.728 1.291 1.291 0 00-1.133.647zm-6.634 0h-.809v7.2h.809v-3.236a2.112 2.112 0 001.618.809 2.236 2.236 0 002.185-2.427 2.286 2.286 0 00-2.186-2.425 1.889 1.889 0 00-1.618.809zm1.456.647a1.533 1.533 0 011.537 1.7 1.6 1.6 0 01-1.537 1.78 1.647 1.647 0 01-1.537-1.78 1.627 1.627 0 011.537-1.7m-6.715 0a1.64 1.64 0 011.618 1.7 1.62 1.62 0 11-1.618-1.7m0 4.126a2.427 2.427 0 10-2.427-2.427 2.434 2.434 0 002.427 2.427m-4.45-8.252h-.809v8.091h.809zm-6.392 5.34a1.465 1.465 0 011.375-1.214 1.541 1.541 0 011.375 1.214zm3.56.647a2.241 2.241 0 00-2.185-2.587 2.277 2.277 0 00-2.265 2.508 2.3 2.3 0 004.369 1.052l-.647-.4a1.576 1.576 0 01-1.375.971 1.488 1.488 0 01-1.537-1.537zm-9.3-2.508h-.89l2.265 4.935 2.265-4.935h-.89l-1.375 3.074zm-5.825 1.861a1.465 1.465 0 011.375-1.214 1.541 1.541 0 011.375 1.214zm3.56.647a2.241 2.241 0 00-2.19-2.587 2.277 2.277 0 00-2.265 2.508 2.3 2.3 0 004.369 1.052l-.647-.4a1.576 1.576 0 01-1.375.971 1.488 1.488 0 01-1.537-1.537zm-10.76 1.375v-5.825h.566a2.919 2.919 0 013.236 2.913 3.126 3.126 0 01-.89 2.184 3.044 3.044 0 01-2.346.728zm-.89.728h1.375a3.88 3.88 0 002.913-.971 3.623 3.623 0 001.214-2.751 3.673 3.673 0 00-1.214-2.832 4.173 4.173 0 00-2.913-.89h-1.381zM264.159 24.757a9.924 9.924 0 00-4.936-8.576l-1.052 1.7a7.848 7.848 0 11-8.091 0l-1.051-1.7a9.98 9.98 0 1015.129 8.576"/>
    <path d="M249.515 18.123a.971.971 0 100-1.942 1.044 1.044 0 00-.971.971.984.984 0 00.971.971M253.64 13.835a.475.475 0 00-.485.485v10.033a.475.475 0 00.485.485h1.052a.475.475 0 00.485-.485V14.32a.475.475 0 00-.485-.485z"/>
    <path d="M254.207 15.049a.971.971 0 10-.971-.971.893.893 0 00.971.971M254.126 25.567a.971.971 0 100-1.942.971.971 0 000 1.942M258.819 18.123a.971.971 0 100-1.942 1.044 1.044 0 00-.971.971.933.933 0 00.971.971"/>
  </g>
</svg>
